<svg height="293.876907" viewBox="0 0 17.456649 15.160622" width="340.278524" xmlns="http://www.w3.org/2000/svg"><path d="m-.40919428 353.28633c-.15875-.21167-.396875-.3175-.63500002-.3175-.6614583 0-1.0583333.68791-1.0583333 1.34937 0 .68792.396875 1.37583 1.0583333 1.37583.23812502 0 .47625002-.10583.63500002-.3175v.23813h.635v-2.56646h-.6614583v.23813zm-.50270834 1.7727c-.34395838 0-.55562498-.37041-.55562498-.71437s.2116666-.71438.55562498-.71438c.34395834 0 .55562504.37042.55562504.71438s-.2116667.71437-.55562504.71437zm2.54000002-1.74625v-.26458h-.66145838v2.56646h.66145838v-1.16417c0-.39687.052917-.84666.5027083-.84666.1058333 0 .185208.0265.264583.10583l.07938-.68792c-.07938-.0265-.185208-.0529-.264583-.0529-.2645833 0-.4497917.13229-.5820833.34396zm1.3758333 2.30188h.661458v-3.22792h-.661458zm4.630208-3.22792h-.661458v3.25438h.661458v-1.95792h.529167v-.60854h-.529167zm-11.932708 1.95792c0 .74083.47625 1.34937 1.1641667 1.34937.2116666 0 .396875-.0529.5820833-.15875v-.55562c-.1058333.0794-.238125.10583-.396875.10583-.052917 0-.1058333 0-.15875-.0265-.1058333-.0265-.2116667-.0529-.2910417-.13229-.1852083-.13229-.3175-.37042-.3175-.635s.1322917-.47625.3175-.635c.079375-.0794.1852084-.13229.3175-.13229h.1058334c.1322916 0 .2645833.0529.396875.10583v-.55562c-.15875-.10583-.3439584-.15875-.5291667-.15875-.6879167.0529-1.190625.66146-1.190625 1.42875zm-.8466667-.29104c-.238125-.10584-.47625-.15875-.47625-.34396 0-.13229.1058334-.21167.2116667-.21167.1322917 0 .2645833.0794.3439583.18521l.2910417-.42333c-.1852083-.18521-.5027083-.26459-.7408333-.26459-.4233334 0-.7408334.34396-.7408334.82021 0 .42334.238125.55563.4497917.68792.2645833.0794.47625.13229.47625.34396 0 .15875-.1058333.26458-.2645833.26458-.1852084 0-.3704167-.13229-.5027084-.29104l-.2910416.44979c.2116666.26458.5027083.42333.8202083.42333.47625 0 .8995833-.34395.8995833-.89958 0-.44979-.238125-.635-.47625-.74083zm10.4774997-1.08479c-.740833 0-1.11125.60854-1.11125 1.40229 0 .76729.449792 1.34937 1.164167 1.34937.449792 0 .846667-.26458 1.031875-.71437l-.635-.15875c-.07938.18521-.211667.3175-.423333.3175-.343959 0-.449792-.37042-.449792-.68792h1.534583v-.0794c0-.79375-.343958-1.42875-1.11125-1.42875zm-.396875 1.03187c.02646-.26458.185209-.52917.449792-.52917s.396875.26459.449792.52917zm4.392084-8.30792c-.3175-.55562-1.005417-.74083-1.561042-.42333l-3.783542 2.16958 2.169584-3.78354c.3175-.55562.132291-1.24354-.423334-1.56104s-1.243541-.13229-1.561041.42333l-2.1695837 3.78355v-4.33917c0-.635-.5027083-1.13771-1.13770828-1.13771-.635 0-1.1377083.50271-1.1377083 1.13771v4.36562l-2.14312502-3.78354c-.3175-.55562-1.0054167-.74083-1.5610417-.42333s-.7408333 1.00542-.4233333 1.56104l2.1695833 3.78354-3.7570833-2.16958c-.555625-.3175-1.2435417-.13229-1.5610417.42333-.3175.55563-.1322916 1.24354.4233334 1.56104l7.03791662 4.04813c.2645833.15875.6614583.23812 1.0054167.23812.34395828 0 .74083328-.0794 1.00541658-.23812l7.0379167-4.04813c.502708-.34395.687917-1.03187.370417-1.5875z" fill="#ef3f35" stroke-width=".264583" transform="translate(7.840081 -340.69216)"/></svg>