<?xml version="1.0" encoding="UTF-8" standalone="no"?>
<!-- Generator: Adobe Illustrator 21.0.0, SVG Export Plug-In . SVG Version: 6.00 Build 0)  -->
<svg id="Calque_1" style="enable-background:new 0 0 86 34" xmlns="http://www.w3.org/2000/svg" xml:space="preserve" viewBox="0 0 86 34" version="1.1" y="0px" x="0px" xmlns:xlink="http://www.w3.org/1999/xlink">
<style type="text/css">
	.st0{fill:#CF2585;}
</style>
<path class="st0" d="m67.5 24.5c-4.2 0-7.5-3.4-7.5-7.5 0-4.2 3.4-7.5 7.5-7.5 4.2 0 7.5 3.4 7.5 7.5 0.1 4.2-3.3 7.5-7.5 7.5m-24.5 0c-4.2 0-7.5-3.4-7.5-7.5 0-4.2 3.4-7.5 7.5-7.5 4.2 0 7.5 3.4 7.5 7.5 0 4.2-3.3 7.5-7.5 7.5zm-15.6-10.8l-6.7 10.3c-0.5 0.8-1.4 1.2-2.3 1.2s-1.8-0.4-2.3-1.2l-6.6-10.3c-0.8-1.3-0.5-3 0.8-3.8s3-0.5 3.8 0.8l4.4 6.7 4.4-6.7c0.8-1.3 2.5-1.6 3.8-0.8 1.2 0.8 1.6 2.5 0.7 3.8zm40.1-13.7c-4.8 0-9.2 2-12.3 5.2-3-3.2-7.4-5.2-12.2-5.2s-9.2 2-12.3 5.2c-3.1-3.2-7.4-5.2-12.2-5.2-9.4 0-17 7.6-17 17s7.6 17 17 17c4.8 0 9.2-2 12.3-5.2 3 3.2 7.4 5.2 12.2 5.2s9.2-2 12.3-5.2c3.1 3.2 7.4 5.2 12.2 5.2 9.4 0 17-7.6 17-17s-7.6-17-17-17z"/>
</svg>
